# xmcd
#
# Track frame offsets:
#	150
#	27411
#	51410
#	77986
#	79856
#	109620
#	132731
#	161761
#	162346
#	190520
#	211277
#	226757
#	242702
#	267291
#	296798
#	321753
#	339744
#
# Disc length: 4705 seconds
#
# Revision: 0
# Processed by: cddbd v1.5.2PL0 Copyright (c) Steve Scherf et al.
# Submitted via: EasyCDDAExtractor 15.2.5.1
#
DISCID=f8125f11
DTITLE=Archie Roach - 1988
DYEAR=2009
DGENRE=Country
TTITLE0=Weeping In The Forest
TTITLE1=Native Born
TTITLE2=Sister Brother
TTITLE3=Archies Introduction to "Took The Children Away"
TTITLE4=Took The Children Away
TTITLE5=Bicentennial Blues
TTITLE6=Beautiful Child
TTITLE7=Archies Introduction to "Give Us Back Our Dancing"
TTITLE8=Give Us Back Our Dancing
TTITLE9=F Troop
TTITLE10=Reach For You
TTITLE11=Christmas Eve
TTITLE12=The People Of Sorrow
TTITLE13=Blood And Tears
TTITLE14=Keep Your Handouts Give Us Back Our Land
TTITLE15=Archie Roach Interview (1988)
TTITLE16=Archie Roach Interview (20088)
EXTD=
EXTT0=
EXTT1=
EXTT2=
EXTT3=
EXTT4=
EXTT5=
EXTT6=
EXTT7=
EXTT8=
EXTT9=
EXTT10=
EXTT11=
EXTT12=
EXTT13=
EXTT14=
EXTT15=
EXTT16=
PLAYORDER=
